<?xml version="1.0" encoding="UTF-8"?>
<svg id="Layer_2" data-name="Layer 2" xmlns="http://www.w3.org/2000/svg" viewBox="0 0 322.53 369.58">
  <defs>
    <style>
      .cls-1 {
        fill: #fff;
      }

      .cls-2 {
        fill: #f01a22;
      }

      .cls-3 {
        fill: #f01a26;
      }
    </style>
  </defs>
  <g id="Layer_1-2" data-name="Layer 1">
    <g>
      <g>
        <path d="m16.59,324.94l-5.3,15.97H0l19.12-52.99h13.29l18.74,52.99h-11.52l-5.22-15.97h-17.82Zm2.69-8.37h12.44l-6.14-19.58-6.3,19.58Z"/>
        <path d="m104.44,313.73c0,16.2-9.68,25.42-21.96,26.88-2.69.31-3.92.31-6.76.31h-18.12v-52.99h18.28c2.84,0,4.07,0,6.76.31,12.29,1.46,21.81,9.29,21.81,25.5Zm-11.21.15c0-10.45-5.07-16.36-12.9-17.36-1.77-.23-3.3-.31-5.68-.31h-6.45v36.33h6.3c2.3,0,3.92,0,5.61-.23,7.91-1,13.13-7.6,13.13-18.43Z"/>
        <path d="m156.73,319.33c0,2.23,0,3.76-.15,6.22-.69,8.83-6.83,16.43-21.66,16.43s-21.04-7.6-21.73-16.43c-.15-2.46-.15-3.99-.15-6.22v-31.41h10.52v32.49c0,1.54,0,2.69.15,3.84.46,6.07,4.15,9.83,11.21,9.83s10.67-3.76,11.14-9.83c.15-1.15.15-2.3.15-3.84v-32.49h10.52v31.41Z"/>
        <path d="m191.13,296.22v44.7h-10.6v-44.7h-17.97v-8.29h46.54v8.29h-17.97Z"/>
        <path d="m253.72,340.91h-38.25v-52.99h37.48v8.29h-26.88v13.98h24.96v8.37h-24.96v13.98h27.65v8.37Z"/>
        <path d="m319.91,340.91h-10.6v-24.5c0-5.53,0-12.59.15-18.12-1.31,5.53-3.23,12.6-4.92,18.05l-7.45,24.58h-11.52l-7.6-24.65c-1.61-5.38-3.53-12.44-4.76-17.89.15,5.53.15,12.52.15,18.05v24.5h-10.6v-52.99h16.74l11.98,43.24,11.98-43.24h16.43v52.99Z"/>
      </g>
      <g>
        <path class="cls-3" d="m18.52,369.25h-3.29v-7.6c0-1.72,0-3.91.05-5.62-.41,1.72-1,3.91-1.53,5.6l-2.31,7.63h-3.58l-2.36-7.65c-.5-1.67-1.1-3.86-1.48-5.55.05,1.72.05,3.88.05,5.6v7.6H.78v-16.45h5.2l3.72,13.42,3.72-13.42h5.1v16.45Z"/>
        <path class="cls-3" d="m27.33,364.29l-1.64,4.96h-3.5l5.94-16.45h4.12l5.82,16.45h-3.58l-1.62-4.96h-5.53Zm.83-2.6h3.86l-1.91-6.08-1.95,6.08Z"/>
        <path class="cls-3" d="m54.95,369.25h-3.6c-.41-1.12-.64-2.12-.81-3.67-.21-1.76-.88-2.84-2.22-2.93-.45-.02-.86-.02-1.29-.02h-1.91v6.63h-3.29v-16.45h6.01c.95,0,1.57.02,2.38.12,2.38.29,4.31,1.53,4.31,4.36,0,2.12-1.26,3.46-3.22,4,1.62.62,2.24,1.98,2.43,3.81.21,2,.52,3.22,1.19,4.15Zm-7.56-9.08c.57,0,.98,0,1.33-.02,1.31-.12,2.36-.76,2.36-2.36s-.88-2.17-2.17-2.34c-.38-.05-.79-.07-1.38-.07h-2.41v4.79h2.26Z"/>
        <path class="cls-3" d="m73.18,369.25h-4.24l-5.08-6.65-1.36,1.48v5.17h-3.29v-16.45h3.29v7.94l7.1-7.94h3.91l-7.27,7.87,6.94,8.58Z"/>
        <path class="cls-3" d="m89.15,369.25h-11.87v-16.45h11.63v2.57h-8.34v4.34h7.75v2.6h-7.75v4.34h8.58v2.6Z"/>
        <path class="cls-3" d="m101.04,355.38v13.87h-3.29v-13.87h-5.58v-2.57h14.44v2.57h-5.58Z"/>
        <path class="cls-3" d="m110.38,369.25v-16.45h3.29v16.45h-3.29Z"/>
        <path class="cls-3" d="m129.07,369.25l-6.77-12.49c.1,1.79.12,3.67.12,5.05v7.44h-3.29v-16.45h4.36l6.91,12.73c-.1-1.76-.12-3.77-.12-5.17v-7.55h3.27l.02,16.45h-4.5Z"/>
        <path class="cls-3" d="m153.18,360.86v8.39h-2.65l-.21-2.67-.74,1.67c-.93.91-2.19,1.33-4,1.33-4.58,0-7.46-3.24-7.46-8.46s3.5-8.65,8.1-8.65,6.77,2.43,7.1,5.67l.02.24h-3.29l-.05-.24c-.41-2.03-1.64-3.22-3.84-3.22-2.67,0-4.58,2.26-4.58,6.01,0,4.1,1.91,6.2,4.48,6.2,2.12,0,3.62-1.38,3.96-3.69h-3.48v-2.57h6.63Z"/>
        <path class="cls-3" d="m176.66,369.25h-11.87v-16.45h11.63v2.57h-8.34v4.34h7.75v2.6h-7.75v4.34h8.58v2.6Z"/>
        <path class="cls-3" d="m191.19,369.25l-6.77-12.49c.1,1.79.12,3.67.12,5.05v7.44h-3.29v-16.45h4.36l6.91,12.73c-.09-1.76-.12-3.77-.12-5.17v-7.55h3.27l.02,16.45h-4.5Z"/>
        <path class="cls-3" d="m208.45,355.38v13.87h-3.29v-13.87h-5.58v-2.57h14.44v2.57h-5.58Z"/>
        <path class="cls-3" d="m229.66,369.25h-11.87v-16.45h11.63v2.57h-8.34v4.34h7.75v2.6h-7.75v4.34h8.58v2.6Z"/>
        <path class="cls-3" d="m247.37,369.25h-3.6c-.41-1.12-.64-2.12-.81-3.67-.21-1.76-.88-2.84-2.22-2.93-.45-.02-.86-.02-1.29-.02h-1.91v6.63h-3.29v-16.45h6.01c.95,0,1.57.02,2.38.12,2.38.29,4.31,1.53,4.31,4.36,0,2.12-1.26,3.46-3.22,4,1.62.62,2.24,1.98,2.43,3.81.21,2,.52,3.22,1.19,4.15Zm-7.56-9.08c.57,0,.98,0,1.33-.02,1.31-.12,2.36-.76,2.36-2.36s-.88-2.17-2.17-2.34c-.38-.05-.79-.07-1.38-.07h-2.41v4.79h2.26Z"/>
        <path class="cls-3" d="m264.14,357.93c0,3.03-2.05,4.72-4.43,5-.81.1-1.43.12-2.38.12h-2.41v6.2h-3.29v-16.45h5.7c.95,0,1.57.02,2.38.12,2.5.29,4.43,1.98,4.43,5Zm-3.46,0c0-1.55-.81-2.29-1.96-2.46-.36-.05-.86-.07-1.45-.07h-2.36v5.05h2.36c.6,0,1.1-.02,1.45-.07,1.14-.17,1.96-.91,1.96-2.46Z"/>
        <path class="cls-3" d="m281.37,369.25h-3.6c-.41-1.12-.64-2.12-.81-3.67-.21-1.76-.88-2.84-2.22-2.93-.45-.02-.86-.02-1.29-.02h-1.91v6.63h-3.29v-16.45h6.01c.95,0,1.57.02,2.38.12,2.38.29,4.31,1.53,4.31,4.36,0,2.12-1.26,3.46-3.22,4,1.62.62,2.24,1.98,2.43,3.81.21,2,.52,3.22,1.19,4.15Zm-7.56-9.08c.57,0,.98,0,1.33-.02,1.31-.12,2.36-.76,2.36-2.36s-.88-2.17-2.17-2.34c-.38-.05-.79-.07-1.38-.07h-2.41v4.79h2.26Z"/>
        <path class="cls-3" d="m285.64,369.25v-16.45h3.29v16.45h-3.29Z"/>
        <path class="cls-3" d="m305.92,357.64h-3.36c-.19-1.67-1.12-2.72-2.84-2.72-1.31,0-2.31.62-2.31,1.95s.88,2.07,3.5,2.69c3.62.83,5.24,2.5,5.24,5.15,0,3.1-2.84,4.86-6.08,4.86-3.93,0-6.51-1.74-6.82-5.2h3.36c.36,1.81,1.74,2.74,3.41,2.74,1.5,0,2.69-.81,2.69-2.07,0-1.38-.86-2.19-3.29-2.76-3.36-.81-5.48-1.98-5.48-5s2.74-4.81,5.89-4.81c3.93,0,5.72,2.24,6.08,5.17Z"/>
        <path class="cls-3" d="m322.53,369.25h-11.87v-16.45h11.63v2.57h-8.34v4.34h7.75v2.6h-7.75v4.34h8.58v2.6Z"/>
      </g>
      <ellipse class="cls-2" cx="173.89" cy="148.87" rx="122.08" ry="90.14"/>
      <g>
        <path class="cls-1" d="m227.53,255.35c-8.36,0-15.47-4.68-20.01-13.17-4.6-8.59-8.5-17.68-12.27-26.47-1.8-4.2-3.61-8.4-5.49-12.56-2.15-4.75-4.35-9.48-6.61-14.32l-2.37-5.09-10.99.79c-9.86.71-19.59,1.41-29.33,2.09l-5.47.38c-7.81.55-15.89,1.12-23.86,1.45-3.49.14-5.3,1.35-6.9,4.61-2.52,5.13-5.22,10.26-7.83,15.22-3.07,5.83-6.24,11.86-9.12,17.88-4.89,10.21-13.66,15.43-26.09,15.52h-.46c-5.59,0-11.09-.71-16.91-1.47-2.66-.35-5.39-.7-8.21-1l-2.13-.22-.74-6.88c-.4-3.69-.8-7.32-1.14-10.95-.16-1.71-.27-3.44-.37-5.16-.13-2.19-.27-4.45-.53-6.62-1.3-10.87-.69-11.97,9.25-16.92,4.72-2.35,9.47-4.6,14.33-6.88.77-.36,1.51-.48,2.37-.62.41-.07.9-.14,1.51-.27l1.52-.31,10.51,12.16,18.1-34.28,9.67-18.36c9.04-17.18,18.39-34.95,27.76-52.34,2.04-3.79,2.17-6.58.49-10.29-3.18-7.01-6.31-14.76-9.87-24.38-1.16-3.13-2.5-3.72-4.58-3.72-.31,0-.64.02-.99.05-1.43.13-2.97.2-4.84.2-1.21,0-2.46-.02-3.75-.05-1.38-.03-2.81-.06-4.34-.06h-2.47l-1.53-21.47L209.3,3.15l69.04,192.48,1.27-.19c2.24-.33,4.16-.62,6.07-.94,1.89-.32,3.77-.67,5.87-1.06l5.36-.99,7.11,17.43-41.85,27.75c-1.81,1.2-3.62,2.41-5.42,3.62-4.71,3.15-9.58,6.41-14.49,9.47-4.93,3.07-9.89,4.63-14.74,4.63Zm-103.57-91.48l63.33-15.04-30.92-80.64-32.41,95.69Z"/>
        <path d="m207.62,6.29c23.01,64.15,45.86,127.86,68.96,192.27,3.86-.59,6.71-.98,9.54-1.45,2.83-.47,5.64-1.03,9.16-1.67,1.84,4.51,3.57,8.76,5.48,13.43-13.71,9.1-26.87,17.83-40.04,26.55-6.6,4.37-13.13,8.86-19.85,13.05-4.52,2.82-9.07,4.23-13.34,4.23-7.11,0-13.47-3.91-17.67-11.77-6.7-12.52-11.81-25.89-17.68-38.87-3.14-6.94-6.4-13.83-9.77-21.09-14.3,1.02-28.21,2.05-42.13,3.01-9.75.68-19.49,1.43-29.25,1.83-4.51.19-7.17,2.03-9.17,6.09-5.48,11.13-11.6,21.94-16.96,33.12-4.87,10.18-13.48,13.94-23.72,14.01-.15,0-.29,0-.44,0-7.97,0-15.96-1.53-24.84-2.45-.57-5.35-1.17-10.5-1.65-15.67-.37-3.94-.44-7.92-.91-11.84-1.16-9.71-1.24-9.73,7.8-14.24,4.72-2.36,9.5-4.61,14.28-6.85.69-.32,1.52-.33,3.28-.69,3.58,4.14,7.49,8.67,12.04,13.93,7.12-13.49,13.52-25.6,19.91-37.71,12.44-23.57,24.78-47.21,37.42-70.68,2.38-4.41,2.62-8.1.57-12.64-3.59-7.93-6.78-16.04-9.8-24.21-1.38-3.72-3.44-5.45-7.07-5.45-.39,0-.8.02-1.23.06-1.51.14-3.03.18-4.61.18-2.49,0-5.12-.11-8.08-.11-.4-5.63-.76-10.74-1.19-16.79,36.99-9.2,73.51-18.28,110.96-27.59m-87.7,161.26c24.45-5.81,47.12-11.19,70.93-16.85-11.57-30.16-22.61-58.97-33.65-87.77-.63.05-1.26.09-1.89.14-11.6,34.25-23.2,68.51-35.39,104.48M210.99,0l-4.65,1.16-38.74,9.63-72.23,17.96-4.32,1.07.32,4.44.22,3.07.98,13.72.35,4.92h4.93c1.5,0,2.92.03,4.28.06,1.31.03,2.57.05,3.8.05,1.96,0,3.58-.07,5.1-.21.26-.02.51-.04.74-.04,1.02,0,1.36,0,2.1,1.99,3.58,9.67,6.74,17.47,9.94,24.55,1.34,2.96,1.24,4.89-.41,7.95-9.38,17.4-18.73,35.17-27.78,52.36-3.22,6.12-6.44,12.24-9.67,18.35l-13.5,25.58-2.79,5.28-6.14-7.1-.83-.96-2.02-2.34-3.03.61c-.57.11-1.02.19-1.4.25-.97.16-1.97.32-3.08.84-4.88,2.29-9.65,4.55-14.39,6.91-10.92,5.45-12.13,7.62-10.72,19.39l.03.22c.25,2.1.38,4.22.52,6.47.11,1.75.22,3.49.38,5.24.34,3.63.74,7.25,1.14,10.93.17,1.59.35,3.19.52,4.8l.45,4.26,4.26.44c2.78.29,5.51.64,8.15.99,5.9.77,11.48,1.49,17.24,1.49h.48c13.52-.1,23.1-5.83,28.46-17.02,2.86-5.98,6.02-11.99,9.08-17.81,2.61-4.97,5.31-10.11,7.85-15.26,1.17-2.39,2.13-3.03,4.64-3.14,8.02-.33,16.12-.9,23.96-1.46l5.44-.38c9.72-.67,19.44-1.37,29.28-2.08l9.22-.66c.54,1.16,1.08,2.31,1.61,3.45,2.29,4.91,4.46,9.55,6.6,14.28,1.87,4.12,3.69,8.38,5.46,12.5,3.8,8.84,7.72,17.98,12.37,26.68,5.03,9.39,12.96,14.57,22.34,14.57,5.36,0,10.79-1.69,16.15-5.04,4.94-3.08,9.82-6.35,14.54-9.51,1.81-1.21,3.62-2.42,5.43-3.62,9.27-6.14,18.55-12.3,28.01-18.57l12.03-7.98,3.61-2.4-1.64-4.02-5.48-13.43-1.63-3.99-4.24.78-3.19.59c-2.11.39-3.99.75-5.89,1.07-1.64.28-3.29.52-5.15.8L212.6,4.51l-1.62-4.51h0Zm-82.98,160.19l24.79-73.18,3.73-11.03,27.21,70.97-55.73,13.24h0Z"/>
      </g>
    </g>
  </g>
</svg>